g ExportedNavMesh
v -3.603333 6.603202 -9.4
v -3.603333 6.603202 -6.893333
v -0.1566663 6.603202 -6.893333
v -0.1566663 6.603202 -9.4
v -3.133333 8.169868 -3.29
v -2.193333 8.169868 -3.29
v -2.506666 8.169868 -4.073333
v -2.976666 8.169868 -5.64
v -3.133333 8.169868 -3.29
v -2.506666 8.169868 -4.073333
v -2.976666 8.169868 -5.64
v -2.506666 8.169868 -4.073333
v -2.036666 8.483202 -4.543334
v -2.036666 8.483202 -4.543334
v 4.768372E-07 9.579868 -4.7
v 4.768372E-07 9.579868 -5.64
v -2.976666 8.169868 -5.64
v 4.768372E-07 6.603202 -4.543334
v 4.768372E-07 6.603202 -5.64
v -0.3133328 6.603202 -5.64
v -0.3133328 6.603202 -4.543334
v 4.768372E-07 6.603202 0
v 4.768372E-07 6.603202 -1.88
v -3.289999 6.603202 -1.723333
v -3.289999 6.603202 -0.1566668
v -2.193333 8.169868 -3.29
v -3.133333 8.169868 -3.29
v -3.133333 8.169868 -2.82
v -1.723333 7.856535 -3.29
v -2.193333 8.169868 -3.29
v -3.133333 8.169868 -2.82
v -1.723333 7.856535 -3.29
v -3.133333 8.169868 -2.82
v 4.768372E-07 6.916535 -2.663333
v 4.768372E-07 6.916535 -3.446667
v 12.84667 6.603202 -9.4
v 12.84667 6.603202 -6.893333
v 16.29333 6.603202 -6.893333
v 16.29333 6.603202 -9.4
v 12.84667 9.579868 -9.4
v 12.84667 9.579868 -6.893333
v 16.29333 9.579868 -6.893333
v 16.29333 9.579868 -9.4
v 1.253333 9.579868 -9.086667
v 1.253333 9.579868 -7.05
v 2.663333 9.579868 -7.05
v 2.663333 9.579868 -9.086667
v 10.02667 9.579868 -9.086667
v 10.02667 9.579868 -7.05
v 11.59333 9.579868 -7.05
v 11.59333 9.579868 -9.086667
v 11.59333 6.603202 -9.086667
v 10.96667 6.603202 -9.086667
v 10.49667 6.603202 -8.46
v 10.02667 6.603202 -7.05
v 11.59333 6.603202 -7.05
v 10.49667 6.603202 -8.46
v 10.02667 6.603202 -8.46
v 10.02667 6.603202 -7.05
v 6.736667 6.603202 -5.796667
v 7.363333 6.603202 -5.796667
v 7.833333 6.603202 -5.953333
v 6.423333 9.579868 -5.483333
v 10.34 9.579868 -5.483333
v 8.93 9.579868 -5.953333
v 6.893333 9.579868 -5.953333
v 11.90667 6.603202 -5.64
v 11.75 6.603202 -5.953333
v 11.12333 6.603202 -5.953333
v 10.81 6.603202 -5.326667
v 15.82333 6.603202 -5.326667
v 15.66667 6.603202 -5.64
v 11.90667 6.603202 -5.64
v 10.81 6.603202 -5.326667
v 11.90667 9.579868 -5.64
v 11.75 9.579868 -5.953333
v 11.28 9.579868 -5.953333
v 10.96667 9.579868 -5.483333
v 10.96667 9.579868 -5.483333
v 15.66667 9.579868 -5.483333
v 11.90667 9.579868 -5.64
v 2.976667 9.579868 -5.796667
v 1.723333 9.579868 -5.796667
v 1.723333 9.579868 -5.17
v 5.483333 9.579868 -5.17
v 5.17 9.579868 -5.796667
v 3.76 9.579868 -5.796667
v 1.723333 9.579868 -5.17
v 5.483333 9.579868 -5.17
v 3.76 9.579868 -5.796667
v 2.976667 9.579868 -5.796667
v 6.893333 6.603202 -5.326667
v 7.363333 6.603202 -5.796667
v 6.736667 6.603202 -5.796667
v 6.893333 6.603202 -4.856667
v 6.893333 6.603202 -5.326667
v 6.736667 6.603202 -5.796667
v 5.953333 6.603202 -5.796667
v 6.893333 6.603202 -4.856667
v 5.013333 6.603202 -5.796667
v 4.073333 6.603202 -5.796667
v 1.566667 6.603202 -4.856667
v 2.976667 6.603202 -5.796667
v 1.88 6.603202 -5.796667
v 1.566667 6.603202 -4.856667
v 6.893333 6.603202 -4.856667
v 5.953333 6.603202 -5.796667
v 5.013333 6.603202 -5.796667
v 3.76 6.603202 -5.796667
v 2.976667 6.603202 -5.796667
v 1.566667 6.603202 -4.856667
v 4.073333 6.603202 -5.796667
v 3.76 6.603202 -5.796667
v 1.566667 6.603202 -4.856667
v 9.4 6.603202 -5.326667
v 10.18333 6.603202 -5.326667
v 9.713333 6.603202 -5.796667
v 9.086667 6.603202 -5.796667
v 15.98 6.603202 0
v 8.616667 6.603202 -2.506667
v 7.833333 6.603202 -2.506667
v 0 6.603202 0
v 0 6.603202 -4.543334
v 0.94 6.603202 -4.856667
v 0.47 6.603202 -5.64
v 0 6.603202 -5.64
v 10.34 9.579868 -5.483333
v 6.423333 9.579868 -5.483333
v 6.11 9.579868 -5.17
v 15.82333 9.579868 -5.17
v 15.66667 9.579868 -5.483333
v 10.96667 9.579868 -5.483333
v 6.11 9.579868 -5.17
v 6.11 9.579868 -5.17
v 10.96667 9.579868 -5.483333
v 10.34 9.579868 -5.483333
v 10.18333 6.603202 -5.326667
v 9.4 6.603202 -5.326667
v 9.87 6.603202 -3.133333
v 10.81 6.603202 -5.326667
v 10.18333 6.603202 -5.326667
v 9.87 6.603202 -3.133333
v 15.82333 6.603202 -2.506667
v 15.82333 6.603202 -5.326667
v 10.81 6.603202 -5.326667
v 9.87 6.603202 -3.133333
v 8.616667 6.603202 -2.506667
v 15.82333 6.603202 -2.506667
v 9.87 6.603202 -3.133333
v 5.483333 9.579868 -5.17
v 1.723333 9.579868 -5.17
v 1.41 9.579868 -4.856667
v 6.11 9.579868 -5.17
v 5.483333 9.579868 -5.17
v 1.41 9.579868 -4.856667
v 15.82333 9.579868 -4.856667
v 15.82333 9.579868 -5.17
v 6.11 9.579868 -5.17
v 1.41 9.579868 -4.856667
v 15.98 6.603202 0
v 15.82333 6.603202 -2.506667
v 8.616667 6.603202 -2.506667
v 5.64 6.603202 -4.543334
v 7.05 6.603202 -4.543334
v 6.893333 6.603202 -4.856667
v 1.566667 6.603202 -4.856667
v 0.94 6.603202 -4.856667
v 0 6.603202 -4.543334
v 4.856667 6.603202 -4.543334
v 5.64 6.603202 -4.543334
v 6.893333 6.603202 -4.856667
v 4.856667 6.603202 -4.543334
v 6.893333 6.603202 -4.856667
v 1.566667 6.603202 -4.856667
v 0 6.603202 -4.543334
v 0.1566667 6.759869 -2.506667
v 0 6.603202 -1.88
v 0 6.603202 0
v 7.833333 6.603202 -2.506667
v 1.41 9.579868 -4.856667
v 0.7833333 9.579868 -4.856667
v 0 9.579868 -4.7
v 5.483333 9.579868 -4.7
v 5.483333 9.579868 -4.7
v 5.796667 9.579868 -4.386667
v 7.05 9.579868 -4.386667
v 7.363333 9.579868 -4.7
v 5.796667 9.579868 -4.386667
v 5.796667 9.579868 0
v 7.05 9.579868 0
v 7.05 9.579868 -4.386667
v 7.363333 9.579868 -4.7
v 15.82333 9.579868 -4.856667
v 1.41 9.579868 -4.856667
v 5.483333 9.579868 -4.7
v 0 9.579868 -4.7
v 0.7833333 9.579868 -4.856667
v 0.47 9.579868 -5.64
v 0 9.579868 -5.64
v 0.3133333 6.603202 -4.23
v 4.543334 6.603202 -3.446667
v 4.543334 6.603202 -4.23
v 0 6.603202 -4.543334
v 0.3133333 6.603202 -4.23
v 4.543334 6.603202 -4.23
v 4.856667 6.603202 -4.543334
v 5.64 6.603202 -3.133333
v 7.05 6.603202 -3.133333
v 6.736667 6.603202 -3.446667
v 5.953333 6.603202 -3.446667
v 5.64 6.603202 -4.543334
v 5.953333 6.603202 -4.23
v 6.736667 6.603202 -4.23
v 7.05 6.603202 -4.543334
v 5.953333 6.603202 -4.23
v 5.953333 6.603202 -3.446667
v 6.736667 6.603202 -3.446667
v 6.736667 6.603202 -4.23
v 7.833333 6.603202 -2.506667
v 5.64 6.603202 -3.133333
v 4.856667 6.603202 -3.133333
v 7.833333 6.603202 -2.506667
v 7.52 6.603202 -3.133333
v 7.05 6.603202 -3.133333
v 7.833333 6.603202 -2.506667
v 7.05 6.603202 -3.133333
v 5.64 6.603202 -3.133333
v 0 6.916535 -3.446667
v 0 6.916535 -2.663333
v 0.1566667 6.759869 -2.506667
v 4.856667 6.603202 -3.133333
v 4.543334 6.603202 -3.446667
v 0.3133333 6.603202 -4.23
v 0.1566667 6.759869 -2.506667
v 7.833333 6.603202 -2.506667
v 4.856667 6.603202 -3.133333
v -3.133333 8.169868 0.94
v -3.133333 8.169868 1.41
v -2.193333 8.169868 1.41
v -3.133333 8.169868 0.94
v -2.193333 8.169868 1.41
v -1.723333 7.856535 1.41
v -3.603333 6.603202 5.17
v -3.603333 6.603202 7.52
v -0.1566663 6.603202 7.52
v -0.1566663 6.603202 5.17
v -2.506666 8.169868 2.193333
v -2.193333 8.169868 1.41
v -3.133333 8.169868 1.41
v -2.506666 8.169868 2.193333
v -3.133333 8.169868 1.41
v -2.976666 8.169868 3.76
v -2.036666 8.483202 2.663333
v -2.506666 8.169868 2.193333
v -2.976666 8.169868 3.76
v 4.768372E-07 9.579868 3.76
v 4.768372E-07 9.579868 2.82
v -2.036666 8.483202 2.663333
v -2.976666 8.169868 3.76
v 4.768372E-07 6.603202 3.76
v 4.768372E-07 6.603202 2.663333
v -0.3133328 6.603202 2.663333
v -0.3133328 6.603202 3.76
v 4.768372E-07 6.916535 0.7833333
v -3.133333 8.169868 0.94
v -1.723333 7.856535 1.41
v 4.768372E-07 6.916535 1.566667
v 4.073333 9.579868 5.326667
v 4.073333 9.579868 7.206666
v 5.64 9.579868 7.206666
v 5.64 9.579868 5.326667
v 0 6.603202 0
v 0 6.916535 0.7833333
v 4.856667 6.603202 1.253333
v 5.64 6.603202 1.253333
v 7.833333 6.603202 1.253333
v 15.82333 6.603202 1.253333
v 15.98 6.603202 0
v 0 6.603202 0
v 0 6.603202 0
v 5.64 6.603202 1.253333
v 7.05 6.603202 1.253333
v 0 6.603202 0
v 7.05 6.603202 1.253333
v 7.833333 6.603202 1.253333
v 7.05 9.579868 2.506667
v 7.05 9.579868 0
v 5.796667 9.579868 0
v 5.953333 9.579868 3.29
v 10.65333 9.579868 3.29
v 15.82333 9.579868 3.29
v 15.82333 9.579868 2.82
v 7.363333 9.579868 2.82
v 7.363333 9.579868 2.82
v 7.05 9.579868 2.506667
v 5.953333 9.579868 3.29
v 7.363333 9.579868 2.82
v 5.953333 9.579868 3.29
v 10.02667 9.579868 3.29
v 7.363333 9.579868 2.82
v 10.02667 9.579868 3.29
v 10.65333 9.579868 3.29
v 12.84667 9.579868 5.17
v 12.84667 9.579868 7.52
v 16.29333 9.579868 7.52
v 16.29333 9.579868 5.17
v 0 6.916535 0.7833333
v 0.3133333 6.759869 1.88
v 1.566667 6.603202 3.133333
v 4.543334 6.603202 1.566667
v 4.856667 6.603202 1.253333
v 5.483333 6.603202 3.133333
v 5.326667 6.603202 2.663333
v 4.543334 6.603202 2.35
v 1.566667 6.603202 3.133333
v 0.3133333 6.759869 1.88
v 0 6.603202 2.663333
v 0.94 6.603202 3.133333
v 1.566667 6.603202 3.133333
v 1.566667 6.603202 3.133333
v 4.543334 6.603202 2.35
v 4.543334 6.603202 1.566667
v 12.84667 6.603202 5.17
v 12.84667 6.603202 7.52
v 16.29333 6.603202 7.52
v 16.29333 6.603202 5.17
v 7.05 6.603202 1.253333
v 5.64 6.603202 1.253333
v 5.953333 6.603202 1.723333
v 6.893333 6.603202 1.566667
v 8.146667 6.603202 2.35
v 7.833333 6.603202 2.506667
v 8.146667 6.603202 3.446667
v 10.18333 6.603202 3.446667
v 10.81 6.603202 3.446667
v 15.82333 6.603202 3.446667
v 15.82333 6.603202 1.253333
v 7.833333 6.603202 1.253333
v 8.146667 6.603202 1.566667
v 8.146667 6.603202 2.35
v 10.18333 6.603202 3.446667
v 7.833333 6.603202 1.253333
v 8.146667 6.603202 1.566667
v 10.18333 6.603202 3.446667
v 10.81 6.603202 3.446667
v 3.133333 9.579868 4.073333
v 3.446667 9.579868 2.82
v 0 9.579868 2.82
v 0 9.579868 3.76
v 0 6.916535 0.7833333
v 0 6.916535 1.566667
v 0.3133333 6.759869 1.88
v 5.483333 6.603202 3.133333
v 1.566667 6.603202 3.133333
v 1.88 6.603202 4.073333
v 5.796667 6.603202 4.073333
v 5.953333 9.579868 3.29
v 5.796667 9.579868 3.76
v 7.206666 9.579868 3.76
v 7.99 9.579868 3.76
v 9.556666 9.579868 3.76
v 10.02667 9.579868 3.29
v 5.953333 9.579868 3.29
v 7.206666 9.579868 3.76
v 7.99 9.579868 3.76
v 5.953333 9.579868 3.29
v 10.96667 9.579868 4.073333
v 11.75 9.579868 4.073333
v 11.90667 9.579868 3.76
v 10.65333 9.579868 3.29
v 15.82333 9.579868 3.29
v 10.65333 9.579868 3.29
v 11.90667 9.579868 3.76
v 15.66667 9.579868 3.76
v 8.146667 6.603202 3.446667
v 8.303333 6.603202 4.073333
v 9.556666 6.603202 4.073333
v 10.18333 6.603202 3.446667
v 11.12333 6.603202 4.073333
v 11.75 6.603202 4.073333
v 11.90667 6.603202 3.76
v 10.81 6.603202 3.446667
v 15.82333 6.603202 3.446667
v 10.81 6.603202 3.446667
v 11.90667 6.603202 3.76
v 15.66667 6.603202 3.76
v 5.796667 9.579868 3.76
v 5.64 9.579868 4.073333
v 6.893333 9.579868 4.073333
v 7.206666 9.579868 3.76
v 9.556666 9.579868 3.76
v 7.99 9.579868 3.76
v 8.146667 9.579868 4.073333
v 9.4 9.579868 4.073333
v 0 6.603202 3.76
v 0.6266667 6.603202 3.76
v 0.94 6.603202 3.133333
v 0 6.603202 2.663333

vn 0 1 0
vn 0 1 0
vn 0 1 0
vn 0 1 0
vn 0 1 0
vn 0 1 0
vn 0 1 0
vn 0 1 0
vn 0 1 0
vn 0 1 0
vn -0.4521002 0.881595 0.1356301
vn -0.4521002 0.881595 0.1356301
vn -0.4521002 0.881595 0.1356301
vn -0.4444924 0.8932183 0.0677321
vn -0.4740997 0.8804711 0
vn -0.4444924 0.8932183 0.0677321
vn -0.4255785 0.8984436 0.1080833
vn 0 1 0
vn 0 1 0
vn 0 1 0
vn 0 1 0
vn 0 1 0
vn 0 1 0
vn 0 1 0
vn 0 1 0
vn 0 1 0
vn 0 1 0
vn 0 1 0
vn 0.3713905 0.5570863 0.7427812
vn 0.3713905 0.5570863 0.7427812
vn 0.3713905 0.5570863 0.7427812
vn 0.4006546 0.8871639 0.2289457
vn 0.323462 0.8584187 0.3981076
vn 0.4006546 0.8871639 0.2289457
vn 0.4788522 0.8778955 0
vn 0 1 0
vn 0 1 0
vn 0 1 0
vn 0 1 0
vn 0 1 0
vn 0 1 0
vn 0 1 0
vn 0 1 0
vn 0 0.9999999 0
vn 0 0.9999999 0
vn 0 0.9999999 0
vn 0 0.9999999 0
vn 0 1 0
vn 0 1 0
vn 0 1 0
vn 0 1 0
vn 0 1 0
vn 0 0.9999999 0
vn 0 1 0
vn 0 1 0
vn 0 1 0
vn 0 1 0
vn 0 1 0
vn 0 1 0
vn 0 0.9999999 0
vn 0 0.9999999 0
vn 0 0.9999999 0
vn 0 1 0
vn 0 1 0
vn 0 1 0
vn 0 1 0
vn 0 1 0
vn 0 1 0
vn 0 1 0
vn 0 1 0
vn 0 1 0
vn 0 1 0
vn 0 1 0
vn 0 1 0
vn 0 1 0
vn 0 1 0
vn 0 1 0
vn 0 0.9999999 0
vn 0 1 0
vn 0 1 0
vn 0 1 0
vn 0 1 0
vn 0 1 0
vn 0 1 0
vn 0 1 0
vn 0 1 0
vn 0 1 0
vn 0 1 0
vn 0 1 0
vn 0 1 0
vn 0 1 0
vn 0 1 0
vn 0 1 0
vn 0 1 0
vn 0 1 0
vn 0 1 0
vn 0 1 0
vn 0 1 0
vn 0 1 0
vn 0 0.9999999 0
vn 0 1 0
vn 0 1 0
vn 0 1 0
vn 0 1 0
vn 0 1 0
vn 0 1 0
vn 0 1 0
vn 0 1 0
vn 0 1 0
vn 0 1 0
vn 0 1 0
vn 0 0.9999999 0
vn 0 0.9999999 0
vn 0 0.9999999 0
vn 0 1 0
vn 0 1 0
vn 0 1 0
vn 0 1 0
vn 0 1 0
vn 0 0.9999999 0
vn 0 1 0
vn 0 1 0
vn 0 1 0
vn 0 1 0
vn 0 1 0
vn 0 1 0
vn 0 1 0
vn 0 1 0
vn 0 1 0
vn 0 1 0
vn 0 1 0
vn 0 1 0
vn 0 1 0
vn 0 1 0
vn 0 1 0
vn 0 1 0
vn 0 1 0
vn 0 1 0
vn 0 1 0
vn 0 1 0
vn 0 1 0
vn 0 1 0
vn 0 1 0
vn 0 1 0
vn 0 1 0
vn 0 1 0
vn 0 0.9999999 0
vn 0 0.9999999 0
vn 0 0.9999999 0
vn 0 1 0
vn 0 1 0
vn 0 1 0
vn 0 0.9999999 0
vn 0 0.9999999 0
vn 0 0.9999999 0
vn 0 1 0
vn 0 0.9999999 0
vn 0 1 0
vn 0 0.9999999 0
vn 0 1 0
vn 0 1 0
vn 0 1 0
vn 0 0.9999999 0
vn 0 0.9999999 0
vn 0 0.9999999 0
vn 0 1 0
vn 0 1 0
vn 0 1 0
vn 0 1 0
vn 0 1 0
vn 0 1 0
vn 0 1 0
vn 0 1 0
vn 0 1 0
vn 0 1 0
vn 0.005015181 0.9980205 0.06268977
vn -0.707107 0.7071066 0
vn 0.005015181 0.9980205 0.06268977
vn 0.02036257 0.9977656 0.06363305
vn 0 1 0
vn 0 1 0
vn 0 1 0
vn 0 1 0
vn 0 0.9999999 0
vn 0 1 0
vn 0 0.9999999 0
vn 0 1 0
vn 0 1 0
vn 0 1 0
vn 0 1 0
vn 0 1 0
vn 0 1 0
vn 0 1 0
vn 0 1 0
vn 0 1 0
vn 0 1 0
vn 0 1 0
vn 0 1 0
vn 0 1 0
vn 0 1 0
vn 0 1 0
vn 0 1 0
vn 0 1 0
vn 0 1 0
vn 0 1 0
vn 0 0.9999999 0
vn 0 1 0
vn 0 1 0
vn 0 1 0
vn 0 1 0
vn 0 1 0
vn 0 1 0
vn 0 1 0
vn 0 1 0
vn 0 1 0
vn 0 1 0
vn 0 1 0
vn 0 1 0
vn 0 1 0
vn 0 1 0
vn 0 1 0
vn 0 1 0
vn 0 1 0
vn 0 1 0
vn 0 1 0
vn 0 1 0
vn 0 1 0
vn 0.0735779 0.9945715 -0.07357802
vn 0.7071059 0.7071077 0
vn 0.07820662 0.9854047 0.1511993
vn 0.0574499 0.9930633 0.1025889
vn 0.06616662 0.959417 -0.2741188
vn 0.0644946 0.9351727 -0.3482709
vn 0.02030877 0.995129 -0.09646666
vn 0.02030877 0.995129 -0.09646666
vn 0.02030877 0.995129 -0.09646666
vn 0 1 0
vn 0 1 0
vn 0 1 0
vn 0.3713906 0.5570864 -0.742781
vn 0.3713906 0.5570864 -0.742781
vn 0.3713906 0.5570864 -0.742781
vn 0 1 0
vn 0 1 0
vn 0 1 0
vn 0 1 0
vn 0 1 0
vn 0 1 0
vn 0 1 0
vn 0 1 0
vn 0 1 0
vn 0 1 0
vn -0.4521002 0.8815951 -0.1356301
vn -0.4521002 0.8815951 -0.1356301
vn -0.4521002 0.8815951 -0.1356301
vn -0.4444924 0.8932182 -0.06773211
vn -0.4740997 0.8804712 0
vn -0.4444924 0.8932182 -0.06773211
vn -0.4255785 0.8984436 -0.1080833
vn 0 1 0
vn 0 1 0
vn 0 1 0
vn 0 1 0
vn 0.4006546 0.8871638 -0.2289457
vn 0.3234621 0.8584188 -0.3981076
vn 0.4006546 0.8871638 -0.2289457
vn 0.4788521 0.8778955 0
vn 0 1 0
vn 0 1 0
vn 0 1 0
vn 0 1 0
vn 0.07795603 0.9500899 -0.3020796
vn 0.0954055 0.9242416 -0.3696963
vn 0.07795603 0.9500899 -0.3020796
vn 0 1 0
vn 0 1 0
vn 0 1 0
vn 0 1 0
vn 0 1 0
vn 0 1 0
vn 0 1 0
vn 0 1 0
vn 0 0.9999999 0
vn 0 0.9999999 0
vn 0 0.9999999 0
vn 0 0.9999999 0
vn 0 1 0
vn 0 0.9999999 0
vn 0 1 0
vn 0 1 0
vn 0 1 0
vn 0 1 0
vn 0 1 0
vn 0 1 0
vn 0 1 0
vn 0 1 0
vn 0 1 0
vn 0 1 0
vn 0 1 0
vn 0 1 0
vn 0 1 0
vn 0 1 0
vn 0 1 0
vn 0 1 0
vn 0 1 0
vn 0 1 0
vn 0.04638361 0.9942224 0.09680044
vn -0.02471523 0.9886343 0.1482946
vn 0.04442432 0.9937015 0.1028772
vn 0.05268058 0.9943468 0.09219101
vn 0.05862099 0.9965578 0.05862092
vn 0 1 0
vn 0 1 0
vn 0 1 0
vn 0 1 0
vn -0.04360668 0.988418 0.1453557
vn -0.08192319 0.9830782 0.1638465
vn -0.04360668 0.988418 0.1453557
vn 0 0.9922779 0.1240348
vn 0 1 0
vn 0 1 0
vn 0 1 0
vn 0 1 0
vn 0 1 0
vn 0 1 0
vn 0 1 0
vn 0 1 0
vn 0 1 0
vn 0 1 0
vn 0 1 0
vn 0 1 0
vn 0 1 0
vn 0 1 0
vn 0 1 0
vn 0 1 0
vn 0 1 0
vn 0 1 0
vn 0 1 0
vn 0 1 0
vn 0 1 0
vn 0 1 0
vn 0 1 0
vn 0 1 0
vn 0 1 0
vn 0 1 0
vn 0 0.9999999 0
vn 0 1 0
vn 0 0.9999999 0
vn 0 1 0
vn 0.4472127 0.8944277 0
vn 0.4472127 0.8944277 0
vn 0.4472127 0.8944277 0
vn 0 1 0
vn 0 1 0
vn 0 1 0
vn 0 1 0
vn 0 1 0
vn 0 1 0
vn 0 1 0
vn 0 1 0
vn 0 1 0
vn 0 1 0
vn 0 1 0
vn 0 1 0
vn 0 1 0
vn 0 1 0
vn 0 1 0
vn 0 1 0
vn 0 1 0
vn 0 1 0
vn 0 1 0
vn 0 1 0
vn 0 1 0
vn 0 1 0
vn 0 1 0
vn 0 1 0
vn 0 1 0
vn 0 1 0
vn 0 0.9999999 0
vn 0 0.9999999 0
vn 0 0.9999999 0
vn 0 0.9999999 0
vn 0 1 0
vn 0 1 0
vn 0 1 0
vn 0 0.9999999 0
vn 0 1 0
vn 0 0.9999999 0
vn 0 1 0
vn 0 1 0
vn 0 1 0
vn 0 1 0
vn 0 1 0
vn 0 1 0
vn 0 1 0
vn 0 1 0
vn 0 1 0
vn 0 1 0


f 1//1 2//2 3//3
f 1//1 3//3 4//4
f 5//5 6//6 7//7
f 8//8 9//9 10//10
f 11//11 12//12 13//13
f 14//14 15//15 16//16
f 14//14 16//16 17//17
f 18//18 19//19 20//20
f 18//18 20//20 21//21
f 22//22 23//23 24//24
f 22//22 24//24 25//25
f 26//26 27//27 28//28
f 29//29 30//30 31//31
f 32//32 33//33 34//34
f 32//32 34//34 35//35
f 36//36 37//37 38//38
f 36//36 38//38 39//39
f 40//40 41//41 42//42
f 40//40 42//42 43//43
f 44//44 45//45 46//46
f 44//44 46//46 47//47
f 48//48 49//49 50//50
f 48//48 50//50 51//51
f 52//52 53//53 54//54
f 52//52 54//54 55//55
f 52//52 55//55 56//56
f 57//57 58//58 59//59
f 60//60 61//61 62//62
f 63//63 64//64 65//65
f 63//63 65//65 66//66
f 67//67 68//68 69//69
f 67//67 69//69 70//70
f 71//71 72//72 73//73
f 71//71 73//73 74//74
f 75//75 76//76 77//77
f 75//75 77//77 78//78
f 79//79 80//80 81//81
f 82//82 83//83 84//84
f 85//85 86//86 87//87
f 88//88 89//89 90//90
f 88//88 90//90 91//91
f 92//92 93//93 94//94
f 95//95 96//96 97//97
f 95//95 97//97 98//98
f 99//99 100//100 101//101
f 99//99 101//101 102//102
f 103//103 104//104 105//105
f 106//106 107//107 108//108
f 109//109 110//110 111//111
f 112//112 113//113 114//114
f 115//115 116//116 117//117
f 115//115 117//117 118//118
f 119//119 120//120 121//121
f 119//119 121//121 122//122
f 123//123 124//124 125//125
f 123//123 125//125 126//126
f 127//127 128//128 129//129
f 130//130 131//131 132//132
f 130//130 132//132 133//133
f 134//134 135//135 136//136
f 137//137 138//138 139//139
f 140//140 141//141 142//142
f 143//143 144//144 145//145
f 143//143 145//145 146//146
f 147//147 148//148 149//149
f 150//150 151//151 152//152
f 153//153 154//154 155//155
f 156//156 157//157 158//158
f 156//156 158//158 159//159
f 160//160 161//161 162//162
f 163//163 164//164 165//165
f 166//166 167//167 168//168
f 169//169 170//170 171//171
f 172//172 173//173 174//174
f 172//172 174//174 175//175
f 176//176 177//177 178//178
f 176//176 178//178 179//179
f 180//180 181//181 182//182
f 180//180 182//182 183//183
f 184//184 185//185 186//186
f 184//184 186//186 187//187
f 188//188 189//189 190//190
f 188//188 190//190 191//191
f 192//192 193//193 194//194
f 192//192 194//194 195//195
f 196//196 197//197 198//198
f 196//196 198//198 199//199
f 200//200 201//201 202//202
f 203//203 204//204 205//205
f 203//203 205//205 206//206
f 207//207 208//208 209//209
f 207//207 209//209 210//210
f 211//211 212//212 213//213
f 211//211 213//213 214//214
f 215//215 216//216 217//217
f 215//215 217//217 218//218
f 219//219 220//220 221//221
f 222//222 223//223 224//224
f 225//225 226//226 227//227
f 228//228 229//229 230//230
f 228//228 230//230 231//231
f 228//228 231//231 232//232
f 228//228 232//232 233//233
f 234//234 235//235 236//236
f 237//237 238//238 239//239
f 240//240 241//241 242//242
f 243//243 244//244 245//245
f 243//243 245//245 246//246
f 247//247 248//248 249//249
f 250//250 251//251 252//252
f 253//253 254//254 255//255
f 256//256 257//257 258//258
f 256//256 258//258 259//259
f 260//260 261//261 262//262
f 260//260 262//262 263//263
f 264//264 265//265 266//266
f 264//264 266//266 267//267
f 268//268 269//269 270//270
f 268//268 270//270 271//271
f 272//272 273//273 274//274
f 272//272 274//274 275//275
f 276//276 277//277 278//278
f 276//276 278//278 279//279
f 280//280 281//281 282//282
f 283//283 284//284 285//285
f 286//286 287//287 288//288
f 286//286 288//288 289//289
f 290//290 291//291 292//292
f 290//290 292//292 293//293
f 294//294 295//295 296//296
f 297//297 298//298 299//299
f 300//300 301//301 302//302
f 303//303 304//304 305//305
f 303//303 305//305 306//306
f 307//307 308//308 309//309
f 307//307 309//309 310//310
f 307//307 310//310 311//311
f 312//312 313//313 314//314
f 312//312 314//314 315//315
f 316//316 317//317 318//318
f 316//316 318//318 319//319
f 320//320 321//321 322//322
f 323//323 324//324 325//325
f 323//323 325//325 326//326
f 327//327 328//328 329//329
f 327//327 329//329 330//330
f 331//331 332//332 333//333
f 331//331 333//333 334//334
f 335//335 336//336 337//337
f 335//335 337//337 338//338
f 339//339 340//340 341//341
f 342//342 343//343 344//344
f 342//342 344//344 345//345
f 346//346 347//347 348//348
f 346//346 348//348 349//349
f 350//350 351//351 352//352
f 353//353 354//354 355//355
f 353//353 355//355 356//356
f 357//357 358//358 359//359
f 360//360 361//361 362//362
f 360//360 362//362 363//363
f 364//364 365//365 366//366
f 367//367 368//368 369//369
f 367//367 369//369 370//370
f 371//371 372//372 373//373
f 371//371 373//373 374//374
f 375//375 376//376 377//377
f 375//375 377//377 378//378
f 379//379 380//380 381//381
f 379//379 381//381 382//382
f 383//383 384//384 385//385
f 383//383 385//385 386//386
f 387//387 388//388 389//389
f 387//387 389//389 390//390
f 391//391 392//392 393//393
f 391//391 393//393 394//394
f 395//395 396//396 397//397
f 395//395 397//397 398//398
